# AST/ASF file generated using VICON BodyLanguage
# -----------------------------------------------
:version 1.10
:name VICON
:units
  mass 1.0
  length 0.45
  angle deg
:documentation
   .ast/.asf automatically generated from VICON data using
   VICON BodyBuilder and BodyLanguage model FoxedUp or BRILLIANT.MOD
:root
   order TX TY TZ RX RY RZ
   axis XYZ
   position 0 0 0  
   orientation 0 -0 0 
:bonedata
  begin
     id 1 
     name lhipjoint
     direction 0.432694 -0.693742 0.575759 
     length 2.19277 
     axis 0 -0 0  XYZ
  end
  begin
     id 2 
     name lfemur
     direction 0.34202 -0.939693 0  
     length 6.69022  
     axis 0 -0 20  XYZ
    dof rx ry rz
    limits (-160.0 20.0)
           (-70.0 70.0)
           (-60.0 70.0)
  end
  begin
     id 3 
     name ltibia
     direction 0.34202 -0.939693 0   
     length 6.50337   
     axis 0 -0 20   XYZ
    dof rx
    limits (-10.0 170.0)
  end
  begin
     id 4 
     name lfoot
     direction 0.158999 -0.435969 0.885805   
     length 2.70564   
     axis -90 -1.13533e-015 20   XYZ
    dof rx rz
    limits (-45.0 90.0)
           (-70.0 20.0)
  end
  begin
     id 5 
     name ltoes
     direction -0.00592919 0.00964381 0.999936   
     length 1.29929   
     axis -90 -1.13533e-015 20   XYZ
    dof rx
    limits (-90.0 20.0)
  end
  begin
     id 6 
     name rhipjoint
     direction -0.414359 -0.700339 0.581234   
     length 2.17212  
     axis 0 -0 0  XYZ 
  end
  begin
     id 7 
     name rfemur
     direction -0.34202 -0.939693 0   
     length 7.17659   
     axis 0 -0 -20   XYZ
    dof rx ry rz
    limits (-160.0 20.0)
           (-70.0 70.0)
           (-70.0 60.0)
  end
  begin
     id 8 
     name rtibia
     direction -0.34202 -0.939693 0   
     length 6.36669   
     axis 0 -0 -20   XYZ
    dof rx
    limits (-10.0 170.0)
 end
 begin
     id 9 
     name rfoot
     direction -0.137064 -0.37658 0.916188   
     length 2.22351  
     axis -90 1.13533e-015 -20   XYZ
    dof rx rz
    limits (-45.0 90.0)
           (-20.0 70.0)
  end
  begin
     id 10 
     name rtoes
     direction -0.000784077 -0.00289101 0.999996   
     length 1.09522   
     axis -90 1.13533e-015 -20   XYZ
    dof rx
    limits (-90.0 20.0)
  end
  begin
     id 11 
     name lowerback
     direction -0.0176242 0.984912 -0.172157   
     length 1.65301   
     axis 0 -0 0   XYZ
    dof rx ry rz
    limits (-20.0 45.0)
           (-30.0 30.0)
           (-30.0 30.0)
  end
  begin
     id 12 
     name upperback
     direction -0.00218128 0.998776 -0.0494072   
     length 1.67776   
     axis 0 -0 0   XYZ
    dof rx ry rz
    limits (-20.0 45.0)
           (-30.0 30.0)
           (-30.0 30.0)
  end
  begin
     id 13 
     name thorax
     direction 0.00544186 0.999658 0.0255711   
     length 1.72293   
     axis 0 -0 0   XYZ
    dof rx ry rz
    limits (-20.0 45.0)
           (-30.0 30.0)
           (-30.0 30.0)
  end
  begin
     id 14 
     name lowerneck
     direction -0.105325 0.983841 0.144785   
     length 2.14226   
     axis 0 -0 0   XYZ
    dof rx ry rz
    limits (-20.0 45.0)
           (-30.0 30.0)
           (-30.0 30.0)
  end
  begin
     id 15 
     name upperneck
     direction 0.0547957 0.988053 -0.144041   
     length 2.17508   
     axis 0 -0 0   XYZ
    dof rx ry rz
    limits (-20.0 45.0)
           (-30.0 30.0)
           (-30.0 30.0)
  end
  begin
     id 16
     name head
     direction 0.0247488 0.997534 -0.0656813  
     length 2.20048  
     axis 0 -0 0   XYZ
    dof rx ry rz
    limits (-20.0 45.0)
           (-30.0 30.0)
           (-30.0 30.0)
  end
  begin
     id 17 
     name lclavicle
     direction 0.820559 0.567247 -0.0701026  
     length 4.09615  
     axis 0 -0 0   XYZ
    dof ry rz
    limits (-20.0 10.0)
           (0.0 20.0)
  end
  begin
     id 18 
     name lhumerus
     direction 0.999977 -0.0067566 -9.96392e-005   
     length 4.59333   
     axis -180 -30 -90   XYZ
    dof rx ry rz
    limits (-60.0 90.0)
           (-90.0 90.0)
           (-90.0 90.0)
  end
  begin
     id 19
     name lradius
     direction 1 -4.48982e-011 -2.53425e-027   
     length 2.81151   
     axis -180 -30 -90   XYZ
    dof rx
    limits (-10.0 170.0)
  end
  begin
     id 20
     name lwrist
     direction 1 -4.48939e-011 -7.39254e-028   
     length 1.40576   
     axis 2.56395e-016 90 90   XYZ
    dof ry
    limits (-180.0 0.0)
 end
  begin
     id 21 
     name lhand
     direction 1 -4.48939e-011 -1.47851e-027   
     length 0.895651   
     axis 9.43423e-016 90 90   XYZ
    dof rx rz
    limits (-90.0 90.0)
           (-45.0 45.0)
  end
  begin
     id 22 
     name lfingers
     direction 1 -4.48978e-011 -2.95702e-027   
     length 0.722097   
     axis 1.88685e-015 90 90   XYZ
    dof rx
    limits (0.0 90.0)
  end
  begin
     id 23
     name lthumb
     direction 0.707107 -6.34931e-011 0.707107   
     length 1.03679   
     axis -90 45 -9.86935e-015   XYZ
    dof rx rz
    limits (-45.0 45.0)
           (-45.0 45.0)
  end
  begin
     id 24 
     name rclavicle
     direction -0.831414 0.553102 -0.0531864   
     length 4.24872  
     axis 0 -0 0   XYZ 
    dof ry rz
    limits (-10.0 20.0)
           (-20.0 0.0)
  end
  begin
     id 25 
     name rhumerus
     direction -0.999916 -0.000939607 0.0129331  
     length 4.74834   
     axis -180 30 90   XYZ
    dof rx ry rz
    limits (-90.0 60.0)
           (-90.0 90.0)
           (-90.0 90.0)
  end
  begin
     id 26 
     name rradius
     direction -1 -4.48956e-011 -1.31752e-027   
     length 2.79907   
     axis -180 30 90   XYZ
    dof rx
    limits (-10.0 170.0)
  end
  begin
     id 27 
     name rwrist
     direction -1 -4.4897e-011 -7.39254e-028   
     length 1.39954   
     axis 2.56395e-016 -90 -90   XYZ
    dof ry
    limits (-180.0 0.0)
  end
  begin
     id 28
     name rhand
     direction -0.999997 -0.00250697 0.000800838   
     length 0.953304   
     axis 9.43423e-016 -90 -90   XYZ
    dof rx rz
    limits (-90.0 90.0)
           (-45.0 45.0)
  end
  begin
     id 29
     name rfingers
     direction -1 -4.48954e-011 -2.95702e-027   
     length 0.763342   
     axis 1.88685e-015 -90 -90   XYZ
    dof rx
    limits (0.0 90.0)
  end
  begin
     id 30
     name rthumb
     direction -0.709701 -0.00217037 0.7045   
     length 1.10115   
     axis -90 -45 9.86935e-015   XYZ
    dof rx rz
    limits (-45.0 45.0)
           (-45.0 45.0)
  end
:hierarchy
  begin
    root lhipjoint rhipjoint lowerback
    lhipjoint lfemur
    lfemur ltibia
    ltibia lfoot
    lfoot ltoes
    rhipjoint rfemur
    rfemur rtibia
    rtibia rfoot
    rfoot rtoes
    lowerback upperback
    upperback thorax
    thorax lowerneck lclavicle rclavicle
    lowerneck upperneck
    upperneck head
    lclavicle lhumerus
    lhumerus lradius
    lradius lwrist
    lwrist lhand lthumb
    lhand lfingers
    rclavicle rhumerus
    rhumerus rradius
    rradius rwrist
    rwrist rhand rthumb
    rhand rfingers
  end

#!OML:ASF G:\ViconDB\ViconDB\414\test\team2\shane.ASF
:FULLY-SPECIFIED
:DEGREES
95
root 4.48047 15.6179 -13.9481 4.23209 -3.60415 -4.94976
lowerback 13.7103 1.05221 -0.21582
upperback 8.5647 1.37076 6.67651
thorax 1.20352 0.497542 7.01059
lowerneck -14.2214 -3.81993 -8.95127
upperneck 10.5893 -3.59694 1.86906
head 5.72911 -1.97987 1.70228
rclavicle 6.36111e-015 1.90833e-014
rhumerus -17.4252 18.1554 -93.7138
rradius 82.3706
rwrist 33.5448
rhand -51.0069 -28.7906
rfingers 7.12502
rthumb -23.5552 -57.3681
lclavicle 6.36111e-015 1.90833e-014
lhumerus -37.6343 -24.5123 91.3764
lradius 40.253
lwrist -14.8113
lhand -45.6838 6.95499
lfingers 7.12502
lthumb -18.4415 36.1008
rfemur -23.9544 -16.6434 27.5806
rtibia 59.5564
rfoot -35.8057 -3.81335
rtoes -11.7102
lfemur -4.62497 -1.99162 -4.16989
ltibia 85.8853
lfoot -10.6407 -20.4424
ltoes -8.69152
96
root 4.44969 15.6054 -13.5197 3.77296 -4.02822 -5.07676
lowerback 14.3202 1.35856 0.382683
upperback 8.65332 1.85211 6.3459
thorax 0.935433 0.771907 6.23416
lowerneck -14.1577 -3.96979 -8.23423
upperneck 10.1807 -3.90405 1.52375
head 5.5831 -2.11821 1.45275
rclavicle 1.90833e-014 5.56597e-014
rhumerus -13.4017 17.7557 -95.4092
rradius 83.4861
rwrist 34.3696
rhand -52.0636 -27.9297
rfingers 7.12502
rthumb -24.5684 -56.3733
lclavicle 1.90833e-014 5.56597e-014
lhumerus -40.4228 -25.2201 89.687
lradius 38.6922
lwrist -15.7229
lhand -45.5875 6.63241
lfingers 7.12502
lthumb -18.3489 35.787
rfemur -20.9792 -15.8209 27.1356
rtibia 58.6266
rfoot -36.8594 -4.69906
rtoes -12.4617
lfemur -8.14018 -1.8209 -3.33636
ltibia 89.0757
lfoot -11.6861 -19.9612
ltoes -7.76393
97
root 4.40536 15.6041 -13.0873 3.53845 -4.80403 -5.02932
lowerback 14.6535 1.91041 0.481313
upperback 8.7565 2.58917 6.00566
thorax 0.805635 1.1533 5.70027
lowerneck -14.2743 -4.15564 -7.70543
upperneck 9.73117 -4.24934 1.51109
head 5.46361 -2.25833 1.33364
rclavicle 1.35174e-014 1.82882e-014
rhumerus -9.82207 18.2208 -96.9358
rradius 85.6366
rwrist 34.5498
rhand -52.5165 -30.8082
rfingers 7.12502
rthumb -25.0026 -59.1921
lclavicle 1.35174e-014 1.82882e-014
lhumerus -42.8315 -25.6815 87.8448
lradius 37.7477
lwrist -16.4385
lhand -45.3866 6.30209
lfingers 7.12502
lthumb -18.1556 35.4748
rfemur -18.0794 -14.6207 26.6872
rtibia 57.2657
rfoot -37.7361 -5.72974
rtoes -13.0208
lfemur -11.8448 -0.846662 -2.54087
ltibia 91.7461
lfoot -13.1357 -19.1273
ltoes -6.91582
98
root 4.36527 15.6124 -12.6622 3.21281 -5.41328 -4.81419
lowerback 15.208 2.54376 0.414014
upperback 8.81028 3.42118 5.5987
thorax 0.50719 1.57963 5.16145
lowerneck -14.1583 -4.29758 -6.84401
upperneck 9.10381 -4.6144 1.45473
head 5.24019 -2.4 1.1532
rclavicle 4.96962e-014 4.77083e-014
rhumerus -6.49085 18.3028 -97.9598
rradius 87.8683
rwrist 35.0733
rhand -52.939 -32.1209
rfingers 7.12502
rthumb -25.4073 -60.4478
lclavicle 4.96962e-014 4.77083e-014
lhumerus -45.0519 -26.5987 86.0428
lradius 37.2466
lwrist -16.6935
lhand -45.4333 6.16917
lfingers 7.12502
lthumb -18.2005 35.3377
rfemur -14.972 -13.8427 26.0376
rtibia 55.4929
rfoot -38.3672 -6.55139
rtoes -13.828
lfemur -15.553 0.214246 -2.03182
ltibia 93.8198
lfoot -14.5632 -17.612
ltoes -6.73618
99
root 4.33607 15.6386 -12.2256 3.07598 -6.62948 -4.50157
lowerback 15.6632 3.42461 0.340626
upperback 8.69137 4.57257 5.06857
thorax 0.0747402 2.16883 4.42992
lowerneck -14.4442 -4.43711 -5.90839
upperneck 9.08946 -4.95312 1.35065
head 5.26849 -2.53769 0.936796
rclavicle -5.12864e-014 -4.85035e-014
rhumerus -3.58878 18.0568 -98.7926
rradius 90.2212
rwrist 35.6875
rhand -53.1744 -32.5694
rfingers 7.12502
rthumb -25.6328 -60.864
lclavicle -5.12864e-014 -4.85035e-014
lhumerus -47.6232 -28.1147 84.5354
lradius 37.7728
lwrist -15.4893
lhand -45.3745 6.14443
lfingers 7.12502
lthumb -18.144 35.3182
rfemur -11.992 -12.742 25.1586
rtibia 53.3377
rfoot -38.4719 -7.11896
rtoes -15.3894
lfemur -19.0549 2.12221 -1.86451
ltibia 95.2215
lfoot -15.8324 -15.9149
ltoes -6.18941
100
root 4.31647 15.677 -11.7772 3.10874 -7.29042 -4.59851
lowerback 16.122 4.11768 0.842291
upperback 8.30694 5.56515 4.62243
thorax -0.560855 2.69291 3.46592
lowerneck -14.1948 -4.6402 -5.29857
upperneck 8.97124 -5.41109 1.74933
head 5.2006 -2.71206 0.929904
rclavicle -7.07673e-014 -3.33958e-014
rhumerus -1.30273 17.2819 -99.4301
rradius 92.5135
rwrist 37.814
rhand -53.0064 -33.9914
rfingers 7.12502
rthumb -25.4719 -62.3091
lclavicle -7.07673e-014 -3.33958e-014
lhumerus -50.3514 -29.5147 83.0715
lradius 38.4072
lwrist -15.4721
lhand -45.7695 6.86113
lfingers 7.12502
lthumb -18.524 35.9991
rfemur -8.95302 -12.3039 24.7404
rtibia 50.7465
rfoot -38.2235 -7.54587
rtoes -16.4569
lfemur -22.6607 3.55866 -1.505
ltibia 95.8911
lfoot -17.171 -14.0215
ltoes -7.10533
101
root 4.29847 15.7266 -11.3119 3.19857 -8.24319 -4.73253
lowerback 16.3995 4.88756 1.33024
upperback 7.95537 6.64658 4.07967
thorax -1.02106 3.25264 2.40058
lowerneck -14.0416 -4.88433 -4.64389
upperneck 8.88265 -5.92387 2.15498
head 5.15799 -2.91214 0.911177
rclavicle -2.42517e-014 -4.37326e-014
rhumerus 0.790828 16.8912 -99.8432
rradius 94.6724
rwrist 38.7605
rhand -53.1422 -33.5948
rfingers 7.12502
rthumb -25.602 -61.8939
lclavicle -2.42517e-014 -4.37326e-014
lhumerus -53.1144 -31.2573 81.7552
lradius 39.7922
lwrist -13.5767
lhand -45.9379 6.72776
lfingers 7.12502
lthumb -18.6859 35.8503
rfemur -5.75954 -11.8134 24.1707
rtibia 47.7683
rfoot -37.6438 -7.32039
rtoes -17.8259
lfemur -25.875 5.15866 -1.39868
ltibia 95.846
lfoot -18.3169 -12.2078
ltoes -6.64614
102
root 4.28987 15.7901 -10.837 3.13487 -8.50247 -4.92981
lowerback 16.6772 5.31523 1.89125
upperback 7.70839 7.29215 3.65294
thorax -1.3248 3.58995 1.49758
lowerneck -14.0541 -5.072 -4.3696
upperneck 8.92321 -6.31277 2.82852
head 5.1996 -3.04547 1.04158
rclavicle 3.02153e-014 3.10104e-014
rhumerus 2.75051 17.4262 -99.5027
rradius 96.7006
rwrist 39.226
rhand -53.7828 -34.9402
rfingers 7.12502
rthumb -26.2154 -63.1497
lclavicle 3.02153e-014 3.10104e-014
lhumerus -55.2739 -31.9106 79.9802
lradius 41.4263
lwrist -12.3468
lhand -45.6802 6.90398
lfingers 7.12502
lthumb -18.438 36.0501
rfemur -2.21665 -11.668 23.6274
rtibia 44.3424
rfoot -36.6607 -6.63159
rtoes -18.1759
lfemur -29.0053 5.93818 -1.46209
ltibia 95.1084
lfoot -19.3721 -10.8224
ltoes -6.90983
103
root 4.28805 15.863 -10.3516 3.09679 -8.76265 -4.74737
lowerback 16.9422 5.74125 2.25037
upperback 7.35254 7.90616 3.04283
thorax -1.71387 3.90484 0.514006
lowerneck -14.054 -5.25009 -3.75526
upperneck 9.09331 -6.7096 3.10261
head 5.25617 -3.19751 0.991795
rclavicle 7.55382e-015 2.46493e-014
rhumerus 4.54867 17.398 -98.8961
rradius 98.723
rwrist 39.4616
rhand -53.6717 -36.5164
rfingers 7.12502
rthumb -26.109 -64.7416
lclavicle 7.55382e-015 2.46493e-014
lhumerus -57.3978 -32.934 78.4753
lradius 42.8596
lwrist -11.3542
lhand -45.5732 6.86856
lfingers 7.12502
lthumb -18.3351 36.0245
rfemur 1.3668 -11.6412 22.5522
rtibia 40.5275
rfoot -34.9975 -6.03143
rtoes -19.6084
lfemur -31.9197 6.26048 -2.23455
ltibia 93.696
lfoot -20.0032 -9.93968
ltoes -6.28925
104
root 4.29358 15.9493 -9.84977 3.0307 -8.94849 -4.61115
lowerback 16.9843 6.07991 2.44676
upperback 7.06133 8.37554 2.53887
thorax -1.93803 4.14346 -0.219059
lowerneck -14.0354 -5.36042 -3.11799
upperneck 9.36683 -7.00328 3.20735
head 5.3306 -3.30836 0.894159
rclavicle -1.06151e-013 7.95139e-015
rhumerus 5.78968 17.6333 -98.126
rradius 100.711
rwrist 39.2996
rhand -53.8202 -36.2442
rfingers 7.12502
rthumb -26.2512 -64.4483
lclavicle -1.06151e-013 7.95139e-015
lhumerus -59.2229 -33.1937 76.9608
lradius 44.0656
lwrist -10.9515
lhand -45.7443 7.46516
lfingers 7.12502
lthumb -18.4998 36.6055
rfemur 5.13651 -11.4925 21.4521
rtibia 36.329
rfoot -32.6925 -5.10506
rtoes -21.1441
lfemur -34.4176 6.29768 -3.01484
ltibia 91.6085
lfoot -20.776 -9.52738
ltoes -6.66657
105
root 4.28903 16.0459 -9.3354 3.00454 -9.05035 -4.55745
lowerback 16.8794 6.4133 2.5449
upperback 6.78151 8.82399 2.18646
thorax -2.10111 4.36831 -0.721246
lowerneck -14.0968 -5.6168 -3.4671
upperneck 9.87731 -7.41943 4.14093
head 5.56548 -3.44987 1.19201
rclavicle -7.55382e-014 3.73715e-014
rhumerus 6.50336 17.7501 -97.0441
rradius 102.641
rwrist 39.6331
rhand -53.6135 -36.7355
rfingers 7.12502
rthumb -26.0533 -64.9689
lclavicle -7.55382e-014 3.73715e-014
lhumerus -60.9154 -33.6434 76.0718
lradius 45.1167
lwrist -10.0642
lhand -45.8903 7.50996
lfingers 7.12502
lthumb -18.6402 36.6369
rfemur 8.86751 -11.0848 20.5687
rtibia 32.0518
rfoot -29.7291 -4.01241
rtoes -23.7916
lfemur -36.6662 6.145 -3.73033
ltibia 88.9803
lfoot -21.1377 -9.23885
ltoes -6.95128
